<svg xmlns="http://www.w3.org/2000/svg" viewBox="-18 -22 100 106" role="img"><title>Mia, alarmed</title><g transform="translate(0 4)"><g transform="rotate(-12 17.5 21.5)"><path d="M17.50 2.50 L25.00 21.50 L10.00 21.50 Z" fill="#F5C733" stroke="#EDB2D6" stroke-opacity="1" stroke-width="1" stroke-linejoin="round"/><path d="M17.50 10.00 L21.00 20.00 L14.00 20.00 Z" fill="#FFDB8C"/></g><g transform="rotate(12 46.5 21.5)"><path d="M46.50 2.50 L54.00 21.50 L39.00 21.50 Z" fill="#F5C733" stroke="#EDB2D6" stroke-opacity="1" stroke-width="1" stroke-linejoin="round"/><path d="M46.50 10.00 L50.00 20.00 L43.00 20.00 Z" fill="#FFDB8C"/></g><rect x="9.5" y="13.5" width="45" height="69" rx="21.5" fill="#F5C733" stroke="#EDB2D6" stroke-opacity="1" stroke-width="1"/><defs><linearGradient id="horn" x1="0" y1="0" x2="0" y2="1"><stop offset="0" stop-color="#FFF2B2"/><stop offset="1" stop-color="#FAC74C"/></linearGradient><clipPath id="hornClip"><path d="M32.0 -6.5 Q34.4 3.0 36 12.5 L28 12.5 Q29.6 3.0 32.0 -6.5 Z"/></clipPath></defs><path d="M32.0 -6.5 Q34.4 3.0 36 12.5 L28 12.5 Q29.6 3.0 32.0 -6.5 Z" fill="url(#horn)"/><path d="M28 -0.70 L36 -4.70 M28 3.10 L36 -0.90 M28 6.90 L36 2.90 M28 10.70 L36 6.70 " stroke="#D99E33" stroke-width="0.8" stroke-linecap="round" clip-path="url(#hornClip)"/><path d="M32.0 -6.5 Q34.4 3.0 36 12.5 L28 12.5 Q29.6 3.0 32.0 -6.5 Z" fill="none" stroke="#D99E33" stroke-opacity="0.6" stroke-width="0.5"/><defs><linearGradient id="rainbowH" x1="0" y1="0" x2="1" y2="0"><stop offset="0.0" stop-color="#FF9ECC"/><stop offset="0.5" stop-color="#C29EFF"/><stop offset="1.0" stop-color="#8CCCFF"/></linearGradient><linearGradient id="rainbowV" x1="0" y1="0" x2="0" y2="1"><stop offset="0.0" stop-color="#FF9ECC"/><stop offset="0.5" stop-color="#C29EFF"/><stop offset="1.0" stop-color="#8CCCFF"/></linearGradient></defs><ellipse cx="30" cy="17" rx="13" ry="8" transform="rotate(-12 30 17)" fill="url(#rainbowH)"/><path d="M12.60 18.00 Q9.45 16.98 6.75 19.70 C4.95 31.60 8.10 45.20 4.50 52.00 C10.80 43.50 13.50 29.90 12.60 18.00 Z" fill="url(#rainbowV)"/><path d="M51.40 18.00 Q54.55 16.98 57.25 19.70 C59.05 31.60 55.90 45.20 59.50 52.00 C53.20 43.50 50.50 29.90 51.40 18.00 Z" fill="url(#rainbowV)"/><ellipse cx="32" cy="68" rx="21" ry="14" fill="#FFEDA8"/><ellipse cx="22.5" cy="66" rx="2.5" ry="3.5" fill="#381F14" fill-opacity="0.8"/><ellipse cx="41.5" cy="66" rx="2.5" ry="3.5" fill="#381F14" fill-opacity="0.8"/><ellipse cx="32" cy="76" rx="4" ry="5" fill="#381F14"/><ellipse cx="16" cy="48" rx="4" ry="2.5" fill="#FF738C" fill-opacity="0.45"/><ellipse cx="48" cy="48" rx="4" ry="2.5" fill="#FF738C" fill-opacity="0.45"/><circle cx="16.5" cy="36" r="8.0" fill="#fff"/><circle cx="16.5" cy="36" r="2.25" fill="#000"/><circle cx="18.0" cy="34.5" r="1.25" fill="#fff"/><path d="M15.85 30.75 L14.94 26.75 M13.64 31.00 L11.82 27.00 M11.56 31.75 L8.96 28.25" stroke="#000" stroke-width="1.1" stroke-linecap="round"/><circle cx="47.5" cy="36" r="8.0" fill="#fff"/><circle cx="47.5" cy="36" r="2.25" fill="#000"/><circle cx="49.0" cy="34.5" r="1.25" fill="#fff"/><path d="M48.15 30.75 L49.06 26.75 M50.36 31.00 L52.18 27.00 M52.44 31.75 L55.04 28.25" stroke="#000" stroke-width="1.1" stroke-linecap="round"/><rect x="13" y="19.75" width="10" height="2.5" rx="1.25" fill="#381F14" transform="rotate(-10 18 21)"/><rect x="41" y="19.75" width="10" height="2.5" rx="1.25" fill="#381F14" transform="rotate(10 46 21)"/><path d="M17.00 -0.50 L17.49 1.51 L19.50 2.00 L17.49 2.49 L17.00 4.50 L16.51 2.49 L14.50 2.00 L16.51 1.51 Z" fill="#FFD966"/><path d="M47.00 -7.00 L47.59 -4.59 L50.00 -4.00 L47.59 -3.41 L47.00 -1.00 L46.41 -3.41 L44.00 -4.00 L46.41 -4.59 Z" fill="#FFD966"/><path d="M52.00 7.00 L52.40 8.60 L54.00 9.00 L52.40 9.40 L52.00 11.00 L51.60 9.40 L50.00 9.00 L51.60 8.60 Z" fill="#FFD966"/><rect x="0.2" y="5" width="1.8" height="54" rx="0.9" fill="#595959"/><path d="M-13.50 6.00 L-12.62 5.50 L-11.75 5.13 L-10.88 4.95 L-10.00 4.95 L-9.12 5.11 L-8.25 5.38 L-7.38 5.70 L-6.50 6.00 L-5.62 6.23 L-4.75 6.37 L-3.88 6.40 L-3.00 6.35 L-2.12 6.24 L-1.25 6.12 L-0.38 6.03 L0.50 6.00 L0.50 16.00 L-0.38 16.03 L-1.25 16.12 L-2.12 16.24 L-3.00 16.35 L-3.88 16.40 L-4.75 16.37 L-5.62 16.23 L-6.50 16.00 L-7.38 15.70 L-8.25 15.38 L-9.12 15.11 L-10.00 14.95 L-10.88 14.95 L-11.75 15.13 L-12.62 15.50 L-13.50 16.00 Z" fill="#FF3B30"/><path d="M57.0 22.5 Q60 25.5 60 28.5 A3.0 3.0 0 0 1 54 28.5 Q54 25.5 57.0 22.5 Z" fill="#8CCCFF" stroke="#fff" stroke-opacity="0.9" stroke-width="0.6"/><rect x="56" y="-2" width="22" height="15" rx="7.5" fill="#000" fill-opacity="0.7"/><text x="67.0" y="9.2" text-anchor="middle" font-family="ui-rounded, -apple-system, Helvetica, sans-serif" font-size="11" font-weight="800" fill="#fff">70</text></g></svg>
